<svg width="1080" height="279" viewBox="0 0 1080 279" fill="none" xmlns="http://www.w3.org/2000/svg">
<rect x="14.2337" y="278.983" width="14.0104" height="186.143" rx="7" transform="rotate(179.931 14.2337 278.983)" fill="#55A4CE"/>
<rect x="36.9555" y="278.993" width="14.0104" height="163.113" rx="7" transform="rotate(-179.896 36.9555 278.993)" fill="#0077B6"/>
<rect x="108.543" y="278.983" width="14.0104" height="198.488" rx="7" transform="rotate(179.931 108.543 278.983)" fill="#55A4CE"/>
<rect x="131.265" y="278.993" width="14.0104" height="86.0772" rx="7" transform="rotate(-179.896 131.265 278.993)" fill="#0077B6"/>
<rect x="202.648" y="278.983" width="14.0104" height="144.374" rx="7" transform="rotate(179.931 202.648 278.983)" fill="#55A4CE"/>
<rect x="225.37" y="278.993" width="14.0104" height="278.968" rx="7" transform="rotate(-179.896 225.37 278.993)" fill="#0077B6"/>
<rect x="297.065" y="278.983" width="14.0104" height="112.094" rx="7" transform="rotate(179.931 297.065 278.983)" fill="#55A4CE"/>
<rect x="319.787" y="278.993" width="14.0104" height="139.109" rx="7" transform="rotate(-179.896 319.787 278.993)" fill="#0077B6"/>
<rect x="391.293" y="278.983" width="14.0104" height="166.346" rx="7" transform="rotate(179.931 391.293 278.983)" fill="#55A4CE"/>
<rect x="415.111" y="278.771" width="14.0104" height="180.129" rx="7" transform="rotate(-179.896 415.111 278.771)" fill="#0077B6"/>
<rect x="486.563" y="278.98" width="14.0104" height="59.0465" rx="7" transform="rotate(179.931 486.563 278.98)" fill="#55A4CE"/>
<rect x="509.509" y="279" width="14.0104" height="130.101" rx="7" transform="rotate(-179.896 509.509 279)" fill="#0077B6"/>
<rect x="580.998" y="278.983" width="14.0104" height="166.346" rx="7" transform="rotate(179.931 580.998 278.983)" fill="#55A4CE"/>
<rect x="604.817" y="278.771" width="14.0104" height="180.129" rx="7" transform="rotate(-179.896 604.817 278.771)" fill="#0077B6"/>
<rect x="676.268" y="278.98" width="14.0104" height="59.0465" rx="7" transform="rotate(179.931 676.268 278.98)" fill="#55A4CE"/>
<rect x="699.215" y="279" width="14.0104" height="130.101" rx="7" transform="rotate(-179.896 699.215 279)" fill="#0077B6"/>
<rect x="770.704" y="278.983" width="14.0104" height="166.346" rx="7" transform="rotate(179.931 770.704 278.983)" fill="#55A4CE"/>
<rect x="794.522" y="278.771" width="14.0104" height="180.129" rx="7" transform="rotate(-179.896 794.522 278.771)" fill="#0077B6"/>
<rect x="866.103" y="278.983" width="14.0104" height="166.346" rx="7" transform="rotate(179.931 866.103 278.983)" fill="#55A4CE"/>
<rect x="889.921" y="278.771" width="14.0104" height="180.129" rx="7" transform="rotate(-179.896 889.921 278.771)" fill="#0077B6"/>
<rect x="961.501" y="278.983" width="14.0104" height="166.346" rx="7" transform="rotate(179.931 961.501 278.983)" fill="#55A4CE"/>
<rect x="985.32" y="278.771" width="14.0104" height="180.129" rx="7" transform="rotate(-179.896 985.32 278.771)" fill="#0077B6"/>
<rect x="1056.77" y="278.98" width="14.0104" height="59.0465" rx="7" transform="rotate(179.931 1056.77 278.98)" fill="#55A4CE"/>
<rect x="1079.72" y="279" width="14.0104" height="130.101" rx="7" transform="rotate(-179.896 1079.72 279)" fill="#0077B6"/>
</svg>
