<svg width="24" height="24" viewBox="0 0 24 24" fill="none" xmlns="http://www.w3.org/2000/svg">
<g clip-path="url(#clip0_0_70)">
<path d="M11.5765 23.9944C9.74678 23.9944 7.91613 24.0083 6.08641 23.9898C4.58826 23.9749 3.2183 23.5363 2.03966 22.5942C1.04864 21.8016 0.457924 20.748 0.164425 19.5224C0.0483261 19.0327 0.00188648 18.5338 0.00281528 18.0302C0.00281528 16.0149 -0.00461506 13.9995 0.00560165 11.9851C0.0111744 10.8999 0.195075 9.83506 0.467212 8.78698C0.879595 7.19813 1.51489 5.70963 2.50034 4.38466C3.41613 3.1526 4.53532 2.1519 5.896 1.43181C6.94461 0.876178 8.04802 0.475713 9.21737 0.253646C10.4099 0.0260035 11.6127 -0.038108 12.8239 0.0204286C14.087 0.0817526 15.3223 0.293599 16.5158 0.719151C19.2418 1.69197 21.2369 3.49174 22.5335 6.07014C23.166 7.32914 23.5709 8.66526 23.8087 10.0516C23.9415 10.8283 24.0056 11.6107 24 12.4014C23.988 14.0302 24 15.6599 23.9963 17.2887C23.9935 18.3405 23.7976 19.3561 23.3285 20.301C22.6681 21.6297 21.679 22.6378 20.3155 23.2539C19.1991 23.7584 18.0288 24.0037 16.8019 23.9972C15.0604 23.9879 13.3189 23.9944 11.5784 23.9944H11.5765ZM21.6771 8.56584C21.6725 8.53982 21.6715 8.52496 21.6669 8.51102C21.4254 7.75283 21.1189 7.01973 20.7288 6.32658C19.84 4.74517 18.613 3.51125 16.9672 2.71125C15.8517 2.16956 14.6638 1.91032 13.4415 1.78582C12.7505 1.7152 12.0567 1.70219 11.3601 1.73193C10.1972 1.78117 9.05947 1.95678 7.95699 2.33773C7.02542 2.65922 6.1765 3.12658 5.40839 3.7454C4.36907 4.58257 3.61396 5.64087 3.01582 6.81811C2.56907 7.69801 2.25514 8.62809 2.04151 9.59163C1.82511 10.5663 1.70622 11.5503 1.71272 12.551C1.72387 14.3498 1.70901 16.1487 1.72108 17.9475C1.72387 18.3656 1.76659 18.7874 1.83811 19.2C2.00158 20.1459 2.48362 20.9003 3.2926 21.43C4.15452 21.9949 5.11025 22.2755 6.1347 22.2783C9.69384 22.2876 13.2539 22.282 16.813 22.282C18.0223 22.282 19.1582 22.007 20.2003 21.3788C20.8347 20.997 21.3409 20.4887 21.7087 19.8439C21.7301 19.8067 21.7393 19.7631 21.7579 19.7147C21.7254 19.711 21.7106 19.7073 21.6957 19.7073C20.2013 19.7092 18.7078 19.7129 17.2133 19.7138C16.7722 19.7138 16.3356 19.672 15.9093 19.5466C15.2907 19.3644 14.7251 19.0848 14.2421 18.6527C13.4861 17.9772 13.1072 17.1038 12.9251 16.1273C12.8471 15.7064 12.8629 15.2827 12.8629 14.8581C12.8647 12.8009 12.8638 10.7428 12.8647 8.6857C12.8647 8.64854 12.8685 8.6123 12.8712 8.56491H21.6762L21.6771 8.56584ZM18.3363 10.2866C17.1242 10.2866 15.9121 10.2866 14.7 10.2838C14.6016 10.2838 14.5672 10.3043 14.5672 10.4102C14.5691 11.9888 14.5691 13.5665 14.5644 15.1452C14.5635 15.6014 14.6304 16.0446 14.7827 16.4729C14.9963 17.0741 15.3428 17.561 15.9623 17.8053C16.3347 17.9521 16.7248 17.993 17.1205 17.993C18.7914 17.9949 20.4632 17.993 22.1341 17.9958C22.2112 17.9958 22.2446 17.9772 22.2474 17.8945C22.2558 17.652 22.2827 17.4095 22.2836 17.167C22.2873 15.8281 22.2808 14.4892 22.2873 13.1493C22.2911 12.2462 22.2892 11.344 22.1276 10.4502C22.0979 10.2876 22.1071 10.2857 21.9363 10.2857C20.7363 10.2857 19.5353 10.2857 18.3353 10.2857L18.3363 10.2866Z" fill="#0077B6"/>
<path d="M9.43282 14.5654C9.43561 15.4973 8.66378 16.2806 7.74149 16.2824C6.77647 16.2852 6.00372 15.5298 6.00093 14.5821C5.99814 13.6214 6.75604 12.8567 7.71177 12.8548C8.65728 12.8529 9.43003 13.6204 9.43282 14.5644V14.5654Z" fill="#0077B6"/>
</g>
<defs>
<clipPath id="clip0_0_70">
<rect width="24" height="24" fill="white"/>
</clipPath>
</defs>
</svg>
