<svg width="22" height="22" viewBox="0 0 22 22" fill="none" xmlns="http://www.w3.org/2000/svg">
<path d="M16.1163 21.9974H5.88372C2.36372 21.9974 0 19.6337 0 16.1137V10.9974C0 7.84581 1.94419 5.56396 4.96279 5.18535C5.2493 5.14442 5.56651 5.11372 5.88372 5.11372H16.1163C16.3619 5.11372 16.6791 5.12395 17.0065 5.17511C20.0251 5.52302 22 7.81511 22 10.9974V16.1137C22 19.6337 19.6363 21.9974 16.1163 21.9974ZM5.88372 6.6486C5.63814 6.6486 5.40279 6.66905 5.16744 6.69975C2.91628 6.98626 1.53488 8.62349 1.53488 10.9974V16.1137C1.53488 18.7537 3.24372 20.4626 5.88372 20.4626H16.1163C18.7563 20.4626 20.4651 18.7537 20.4651 16.1137V10.9974C20.4651 8.60302 19.0633 6.95559 16.7916 6.68954C16.546 6.64861 16.3312 6.6486 16.1163 6.6486H5.88372Z" fill="#0077B6"/>
<path d="M5.05493 6.71001C4.80935 6.71001 4.58423 6.59745 4.43075 6.3928C4.25679 6.15745 4.23633 5.85048 4.36935 5.59466C4.5433 5.24676 4.78888 4.90908 5.10609 4.6021L8.43168 1.26628C10.1303 -0.422093 12.8931 -0.422093 14.5917 1.26628L16.3824 3.07746C17.1396 3.82444 17.6 4.82723 17.6512 5.89142C17.6614 6.12676 17.5694 6.35186 17.3954 6.50534C17.2214 6.65883 16.9861 6.73048 16.761 6.68955C16.5563 6.65886 16.3414 6.64861 16.1163 6.64861H5.88377C5.63819 6.64861 5.40284 6.66907 5.16749 6.69977C5.13679 6.71 5.09586 6.71001 5.05493 6.71001ZM6.76377 5.11373H15.9321C15.7991 4.76582 15.5842 4.44862 15.2977 4.16211L13.4968 2.34072C12.4019 1.25607 10.6112 1.25607 9.50609 2.34072L6.76377 5.11373Z" fill="#0077B6"/>
<path d="M21.2326 16.3695H18.1628C16.6074 16.3695 15.3488 15.1109 15.3488 13.5556C15.3488 12.0002 16.6074 10.7416 18.1628 10.7416H21.2326C21.6521 10.7416 22 11.0895 22 11.5091C22 11.9286 21.6521 12.2765 21.2326 12.2765H18.1628C17.4567 12.2765 16.8837 12.8495 16.8837 13.5556C16.8837 14.2616 17.4567 14.8346 18.1628 14.8346H21.2326C21.6521 14.8346 22 15.1826 22 15.6021C22 16.0216 21.6521 16.3695 21.2326 16.3695Z" fill="#0077B6"/>
</svg>
