<svg width="24" height="24" viewBox="0 0 24 24" fill="none" xmlns="http://www.w3.org/2000/svg">
<path d="M10.875 18.6172V20.0872C10.875 20.2522 10.695 20.3497 10.5525 20.2672L8.4525 18.9997C8.38145 18.955 8.32286 18.8931 8.28221 18.8196C8.24156 18.7462 8.22015 18.6637 8.22 18.5797V17.1097C8.22 16.9447 8.4 16.8472 8.5425 16.9297L10.6425 18.1972C10.785 18.2872 10.875 18.4447 10.875 18.6172Z" fill="#0077B6"/>
<path d="M12.6675 0.966735H12.6698L20.8605 5.94824C21.2782 6.20549 21.5325 6.66524 21.5325 7.14974V16.4797C21.5325 17.1817 21.171 17.8582 20.547 18.2317L12.6398 23.0362C12.4147 23.1749 12.1556 23.2483 11.8912 23.2483C11.6269 23.2483 11.3678 23.1749 11.1427 23.0362L3.23325 18.2302C2.93298 18.0473 2.68482 17.7902 2.51262 17.4836C2.34043 17.1771 2.24999 16.8313 2.25 16.4797V7.14974C2.25 6.67274 2.499 6.20399 2.931 5.94974L11.1292 0.962235C11.3618 0.822641 11.6281 0.749274 11.8994 0.750067C12.1706 0.750861 12.4365 0.825783 12.6683 0.966735M11.8958 2.25224L4.56225 6.71249L7.19475 8.32124L14.5372 3.85799L11.8958 2.25224ZM17.007 5.35949L9.65325 9.82348L11.9032 11.1975L19.332 6.77398L17.007 5.35949ZM3.75 16.4797C3.75 16.674 3.85275 16.8517 4.0125 16.9485L11.1473 21.2835V12.4942L8.82 11.073V12.414C8.82 12.594 8.625 12.699 8.475 12.6165L6.465 11.394C6.43285 11.3726 6.40646 11.3436 6.38815 11.3096C6.36984 11.2756 6.36017 11.2376 6.36 11.199V9.56999L3.75 7.97548V16.4797ZM19.77 16.9485L19.776 16.9455C19.8552 16.8963 19.9204 16.8275 19.9653 16.7458C20.0103 16.6641 20.0334 16.5722 20.0325 16.479V8.10149L12.6473 12.5002V21.2767L19.77 16.9485Z" fill="#0077B6"/>
</svg>
