<svg width="22" height="22" viewBox="0 0 22 22" fill="none" xmlns="http://www.w3.org/2000/svg">
<path d="M17.1314 6.81175C17.1007 6.81175 17.0803 6.81175 17.0496 6.81175H16.9985C15.0654 6.75038 13.6233 5.25711 13.6233 3.41611C13.6233 1.53419 15.1575 0.0102378 17.0292 0.0102378C18.9008 0.0102378 20.435 1.54441 20.435 3.41611C20.4248 5.26734 18.9827 6.76061 17.1417 6.82197C17.1417 6.81175 17.1417 6.81175 17.1314 6.81175ZM17.0292 1.53419C15.9961 1.53419 15.1575 2.37287 15.1575 3.40588C15.1575 4.41844 15.945 5.23667 16.9576 5.27758C16.9678 5.26735 17.0496 5.26735 17.1417 5.27758C18.1338 5.22644 18.9008 4.40821 18.9111 3.40588C18.9111 2.37287 18.0724 1.53419 17.0292 1.53419Z" fill="#0077B6"/>
<path d="M17.1418 14.3497C16.743 14.3497 16.3441 14.319 15.9452 14.2474C15.5258 14.1758 15.2497 13.7769 15.3213 13.3576C15.3929 12.9382 15.7918 12.6621 16.2111 12.7337C17.4691 12.9485 18.7987 12.7132 19.6886 12.12C20.1693 11.8029 20.425 11.404 20.425 11.0052C20.425 10.6063 20.159 10.2176 19.6886 9.90056C18.7987 9.30734 17.4487 9.07211 16.1804 9.29712C15.7611 9.37894 15.3622 9.09256 15.2906 8.67322C15.219 8.25388 15.4952 7.855 15.9145 7.7834C17.5816 7.4868 19.3101 7.80385 20.5375 8.62208C21.4375 9.22552 21.9591 10.0847 21.9591 11.0052C21.9591 11.9154 21.4478 12.7848 20.5375 13.3985C19.6067 14.0122 18.3999 14.3497 17.1418 14.3497Z" fill="#0077B6"/>
<path d="M4.82752 6.81174C4.81729 6.81174 4.80706 6.81174 4.80706 6.81174C2.96605 6.75037 1.52393 5.2571 1.5137 3.41609C1.5137 1.53417 3.04787 0 4.91957 0C6.79126 0 8.32543 1.53418 8.32543 3.40587C8.32543 5.2571 6.88331 6.75037 5.0423 6.81174L4.82752 6.04465L4.89911 6.81174C4.87865 6.81174 4.84797 6.81174 4.82752 6.81174ZM4.92979 5.27756C4.99116 5.27756 5.0423 5.27756 5.10367 5.28778C6.01394 5.24687 6.81171 4.42864 6.81171 3.41609C6.81171 2.38308 5.97303 1.5444 4.94002 1.5444C3.90701 1.5444 3.06833 2.38308 3.06833 3.41609C3.06833 4.41842 3.84564 5.22642 4.83774 5.28778C4.84797 5.27756 4.88888 5.27756 4.92979 5.27756Z" fill="#0077B6"/>
<path d="M4.8173 14.3497C3.55928 14.3497 2.3524 14.0122 1.42167 13.3985C0.521618 12.795 0 11.9257 0 11.0052C0 10.0949 0.521618 9.22552 1.42167 8.62208C2.64901 7.80385 4.37751 7.4868 6.04464 7.7834C6.46399 7.855 6.74014 8.25388 6.66854 8.67322C6.59695 9.09256 6.19806 9.37894 5.77872 9.29712C4.51047 9.07211 3.17063 9.30734 2.27058 9.90056C1.78987 10.2176 1.53417 10.6063 1.53417 11.0052C1.53417 11.404 1.8001 11.8029 2.27058 12.12C3.1604 12.7132 4.49001 12.9485 5.74804 12.7337C6.16738 12.6621 6.56627 12.9485 6.63786 13.3576C6.70946 13.7769 6.4333 14.1758 6.01396 14.2474C5.61508 14.319 5.21619 14.3497 4.8173 14.3497Z" fill="#0077B6"/>
<path d="M10.9947 14.4519C10.964 14.4519 10.9436 14.4519 10.9129 14.4519H10.8618C8.92871 14.3905 7.48659 12.8973 7.48659 11.0563C7.48659 9.17434 9.02076 7.65039 10.8925 7.65039C12.7641 7.65039 14.2983 9.18457 14.2983 11.0563C14.2881 12.9075 12.846 14.4008 11.005 14.4621C11.005 14.4519 11.005 14.4519 10.9947 14.4519ZM10.8925 9.17435C9.85945 9.17435 9.02076 10.013 9.02076 11.046C9.02076 12.0586 9.80831 12.8768 10.8209 12.9177C10.8311 12.9075 10.9129 12.9075 11.005 12.9177C11.9971 12.8666 12.7641 12.0484 12.7744 11.046C12.7744 10.0233 11.9357 9.17435 10.8925 9.17435Z" fill="#0077B6"/>
<path d="M10.9947 22C9.76735 22 8.54001 21.683 7.58883 21.0386C6.68878 20.4352 6.16716 19.576 6.16716 18.6555C6.16716 17.7453 6.67855 16.8657 7.58883 16.2622C9.50143 14.994 12.4982 14.994 14.4006 16.2622C15.3006 16.8657 15.8222 17.7248 15.8222 18.6453C15.8222 19.5556 15.3108 20.4352 14.4006 21.0386C13.4494 21.6727 12.222 22 10.9947 22ZM8.43774 17.5509C7.95703 17.868 7.70133 18.2669 7.70133 18.6658C7.70133 19.0646 7.96726 19.4533 8.43774 19.7704C9.81849 20.7011 12.1607 20.7011 13.5414 19.7704C14.0221 19.4533 14.2778 19.0544 14.2778 18.6555C14.2778 18.2567 14.0119 17.868 13.5414 17.5509C12.1709 16.6202 9.82872 16.6304 8.43774 17.5509Z" fill="#0077B6"/>
</svg>
